HIERARCHY
ROOT root
{
	OFFSET 0.000000 0.000000 0.000000
	CHANNELS 6 Xposition Yposition Zposition Zrotation Yrotation Xrotation
	JOINT lhip
	{
		OFFSET 0.058581 -0.082280 -0.017664
		CHANNELS 3 Zrotation Yrotation Xrotation
		JOINT lknee
		{
			OFFSET 0.043451 -0.386469 0.008037
			CHANNELS 3 Zrotation Yrotation Xrotation
			JOINT lankle
			{
				OFFSET -0.014790 -0.426874 -0.037428
				CHANNELS 3 Zrotation Yrotation Xrotation
				JOINT ltoe
				{
					OFFSET 0.041054 -0.060286 0.122042
					CHANNELS 3 Zrotation Yrotation Xrotation
					End Site
					{
						OFFSET 0.000000 0.000000 0.000000
					}
				}
			}
		}
	}
	JOINT rhip
	{
		OFFSET -0.060310 -0.090513 -0.013543
		CHANNELS 3 Zrotation Yrotation Xrotation
		JOINT rknee
		{
			OFFSET -0.043257 -0.383688 -0.004843
			CHANNELS 3 Zrotation Yrotation Xrotation
			JOINT rankle
			{
				OFFSET 0.019056 -0.420046 -0.034562
				CHANNELS 3 Zrotation Yrotation Xrotation
				JOINT rtoe
				{
					OFFSET -0.034840 -0.062106 0.130323
					CHANNELS 3 Zrotation Yrotation Xrotation
					End Site
					{
						OFFSET 0.000000 0.000000 0.000000
					}
				}
			}
		}
	}
	JOINT lowerback
	{
		OFFSET 0.004439 0.124404 -0.038385
		CHANNELS 3 Zrotation Yrotation Xrotation
		JOINT upperback
		{
			OFFSET 0.004488 0.137956 0.026820
			CHANNELS 3 Zrotation Yrotation Xrotation
			JOINT chest
			{
				OFFSET -0.002265 0.056032 0.002855
				CHANNELS 3 Zrotation Yrotation Xrotation
				JOINT lowerneck
				{
					OFFSET -0.013390 0.211636 -0.033468
					CHANNELS 3 Zrotation Yrotation Xrotation
					JOINT upperneck
					{
						OFFSET 0.010113 0.088937 0.050410
						CHANNELS 3 Zrotation Yrotation Xrotation
						End Site
						{
							OFFSET 0.000000 0.000000 0.000000
						}
					}
				}
				JOINT lclavicle
				{
					OFFSET 0.071702 0.114000 -0.018898
					CHANNELS 3 Zrotation Yrotation Xrotation
					JOINT lshoulder
					{
						OFFSET 0.122921 0.045205 -0.019046
						CHANNELS 3 Zrotation Yrotation Xrotation
						JOINT lelbow
						{
							OFFSET 0.255332 -0.015649 -0.022946
							CHANNELS 3 Zrotation Yrotation Xrotation
							JOINT lwrist
							{
								OFFSET 0.265709 0.012698 -0.007375
								CHANNELS 3 Zrotation Yrotation Xrotation
								End Site
								{
									OFFSET 0.000000 0.000000 0.000000
								}
							}
						}
					}
				}
				JOINT rclavicle
				{
					OFFSET -0.082954 0.112472 -0.023707
					CHANNELS 3 Zrotation Yrotation Xrotation
					JOINT rshoulder
					{
						OFFSET -0.113228 0.046853 -0.008472
						CHANNELS 3 Zrotation Yrotation Xrotation
						JOINT relbow
						{
							OFFSET -0.260127 -0.014369 -0.031269
							CHANNELS 3 Zrotation Yrotation Xrotation
							JOINT rwrist
							{
								OFFSET -0.269108 0.006794 -0.006027
								CHANNELS 3 Zrotation Yrotation Xrotation
								End Site
								{
									OFFSET 0.000000 0.000000 0.000000
								}
							}
						}
					}
				}
			}
		}
	}
}
MOTION
Frames: 12
Frame Time: 0.033333
0.842505 0.726505 0.947738 -10.128375 13.720632 59.487226 36.053045 10.769763 31.834282 -3.345432 5.541051 29.684743 1.804880 10.060375 -32.852000 0.000000 -0.000000 0.000000 -10.827707 -3.751819 -28.220852 -1.011846 -14.111639 74.356587 9.511512 -6.445739 9.488157 0.000000 -0.000000 0.000000 -14.268576 -9.910004 10.505232 -1.454889 -6.225192 6.212621 -3.597274 -6.922402 -8.665036 2.571678 -11.408690 8.323137 11.949039 -11.801980 17.523108 -30.057086 -10.328712 11.492438 -38.086323 -16.840693 4.560149 132.655199 -82.198230 -118.931201 32.016623 -14.316189 -9.752848 27.059187 7.050789 8.061466 55.854324 1.579073 12.761015 -158.823470 49.878728 -132.534228 -4.661945 14.238686 -10.226127 
0.838717 0.720711 0.928638 -10.101543 11.984029 62.382509 34.051695 11.106956 27.945148 -3.236393 8.763653 34.062355 2.233980 8.746909 -35.790959 0.000000 -0.000000 0.000000 -8.730906 -1.009254 -20.512924 -3.648769 -11.626632 63.248813 5.347816 -11.212295 2.584667 0.000000 -0.000000 0.000000 -12.994986 -8.992239 7.626993 -1.831249 -5.581983 6.475288 -3.830841 -5.498346 -7.995372 4.075036 -11.815420 5.591108 11.736727 -14.657880 14.245488 -30.760017 -8.593477 13.234385 -47.073309 -14.945366 8.590283 -148.913829 -86.281118 166.057404 27.908108 -10.822084 -15.016222 29.654285 8.703506 11.551059 58.565462 9.212888 14.469000 -157.249318 51.853987 -129.385874 -28.649573 16.213159 -6.227045 
0.834382 0.717734 0.913379 -10.784670 9.083587 65.574233 30.809221 12.760797 24.540403 -2.191525 11.534666 37.559480 2.595831 7.747387 -37.849853 0.000000 -0.000000 0.000000 -7.727847 -0.508593 -18.585330 -5.182819 -10.097254 59.856576 3.997761 -12.500235 -5.016066 0.000000 -0.000000 0.000000 -12.016438 -7.809492 5.414972 -2.685577 -5.637751 8.150061 -3.703386 -5.196690 -8.716632 4.655578 -13.119847 3.802501 12.961351 -14.058995 9.906444 -30.059802 -12.337150 13.864731 -50.970593 -14.482334 11.888530 -102.316937 -83.047496 121.863574 15.835079 -12.045047 -21.532522 25.890720 13.472667 12.200508 53.908693 16.157902 12.827414 -154.563639 53.257187 -124.906194 -32.123287 17.545606 -4.335997 
0.827930 0.717945 0.908915 -14.253062 5.746080 67.639199 27.747528 15.317775 24.549150 -1.885484 13.679854 36.856675 2.060611 7.913540 -37.475139 0.000000 -0.000000 0.000000 -5.917465 -1.071647 -20.816454 -5.784657 -9.841509 63.242612 3.681277 -10.772824 -9.622104 0.000000 -0.000000 0.000000 -9.851565 -8.396610 7.723607 -4.255131 -5.368043 5.262740 -3.930206 -4.709450 -7.938263 5.043484 -13.405232 0.920939 13.629482 -12.312107 8.196806 -28.163555 -17.784328 11.241361 -50.890493 -17.204246 13.494255 -126.235403 -80.258655 149.217313 7.203008 -16.237091 -23.108909 19.719049 18.590547 9.275390 44.104005 22.073548 6.759616 -151.031512 56.837796 -121.524360 -31.369274 18.979335 -1.441816 
0.820712 0.718414 0.916483 -18.470587 2.719885 70.583093 22.551405 17.316967 24.741728 -1.536819 15.229920 31.744315 1.212863 10.573050 -34.238966 0.000000 -0.000000 0.000000 -3.671580 -1.730264 -26.415373 -6.092120 -11.113475 68.648776 3.457100 -10.335581 -11.763514 0.000000 -0.000000 0.000000 -7.403637 -10.518899 10.606433 -5.295088 -5.230671 1.414509 -3.715892 -4.322383 -6.269026 4.804996 -14.557542 -1.697015 14.311567 -9.653555 7.238729 -23.633620 -23.352928 6.397545 -49.123918 -24.328100 14.229408 -161.378471 -78.350657 -175.558332 4.743916 -17.516604 -22.548842 10.323843 23.114179 3.654411 32.765489 26.291387 0.662436 -140.054539 62.017820 -114.602782 -28.896932 17.812615 -1.170406 
0.814530 0.720011 0.936181 -21.976823 0.901990 74.269042 16.350936 17.693283 23.788167 -1.262674 15.178603 24.588485 -0.079994 14.790559 -28.932942 0.000000 -0.000000 0.000000 -1.396722 -1.100598 -33.057446 -5.607546 -13.021674 72.416813 4.285860 -10.409162 -12.172019 0.000000 -0.000000 0.000000 -4.463136 -13.104021 14.066197 -5.199541 -5.293363 -2.271556 -2.899604 -4.338459 -4.559915 4.033046 -15.559764 -2.841074 14.974782 -6.499393 6.074804 -15.577832 -29.419824 0.196148 -42.565929 -32.507982 12.384646 158.679150 -77.261091 -140.543866 0.863973 -17.989493 -24.806525 -1.971635 25.851947 -4.029889 19.459986 26.481136 -5.078005 -117.782866 68.850822 -97.875695 -19.124951 14.674352 -1.921409 
0.809230 0.722256 0.963175 -23.279024 -0.132122 78.075228 11.700714 15.987306 21.991474 -2.264012 10.862520 18.904390 -2.832338 17.341584 -22.222560 0.000000 -0.000000 0.000000 -1.183558 -0.004695 -39.605230 -4.099215 -14.738527 74.039688 6.810173 -9.897032 -10.051539 0.000000 -0.000000 0.000000 -1.904470 -14.997071 17.952816 -3.903546 -5.882399 -4.696120 -1.494420 -4.701379 -3.111905 2.704410 -15.555528 -0.848983 15.686918 -3.265222 2.073077 -2.864782 -33.920464 -7.421827 -28.617875 -37.871182 5.732226 104.839631 -77.546285 -96.960494 -7.186318 -20.998123 -31.645568 -15.794867 25.092732 -12.500932 5.059415 23.067895 -9.633889 -68.184306 74.387295 -54.681347 -2.412130 10.837554 -3.219882 
0.802976 0.724117 0.993378 -22.679734 -1.727946 81.373346 9.424517 12.745264 17.158976 -4.692214 3.541161 22.231823 -5.536371 17.024251 -14.486150 0.000000 -0.000000 0.000000 -3.117820 -0.170899 -43.866430 -2.558566 -14.944629 72.164876 8.818933 -11.960191 -2.408926 0.000000 -0.000000 0.000000 -0.560151 -14.786263 21.411703 -2.147364 -6.364451 -5.105883 0.287424 -5.206992 -1.618060 0.553282 -14.998806 3.769413 16.342632 -0.429082 -4.759379 14.693962 -34.082881 -15.578116 -13.140398 -39.124313 -3.697970 41.974620 -69.526854 -43.354115 -11.415667 -24.453154 -34.627284 -30.669636 20.496706 -19.319065 -5.877694 18.221098 -11.739296 -10.665495 64.723310 -0.685446 20.587096 7.796956 -8.622165 
0.794982 0.722203 1.024110 -22.081366 -4.908622 82.686806 6.806352 10.247429 8.532851 -7.542660 -1.291140 38.881363 -5.357203 16.837349 -9.616335 0.000000 -0.000000 0.000000 -4.298369 -2.600849 -41.106955 -1.509176 -11.807005 64.480112 7.084117 -17.596937 7.529609 0.000000 -0.000000 0.000000 0.341333 -12.101735 26.153666 -1.807486 -6.618473 -5.758818 1.480079 -5.201645 0.670337 -2.523437 -15.596765 8.430453 16.951474 1.658023 -10.362262 31.631777 -30.866784 -22.870217 -0.373632 -35.402036 -12.237234 15.544039 -55.402402 -8.560173 -18.934235 -21.380265 -14.100493 -44.032318 16.107222 -24.576079 -10.007995 14.244677 -13.427558 6.939449 41.630586 20.379315 44.030071 3.555522 -7.153791 
0.780796 0.714551 1.048488 -24.081024 -8.935720 82.732214 3.871125 7.482989 -1.255773 -6.881008 3.693274 62.909484 -4.141531 16.941432 -8.961903 0.000000 -0.000000 0.000000 -3.645886 -4.732392 -31.143393 -2.355213 -7.608560 51.488520 4.605223 -20.103250 11.445128 0.000000 -0.000000 0.000000 1.145767 -7.306079 31.324302 -2.225589 -6.897477 -5.216533 1.833429 -3.332913 1.943069 -5.682992 -16.263386 13.491196 17.859263 1.397611 -15.791861 38.690334 -26.641193 -27.182823 7.537431 -28.822867 -16.007801 11.936022 -53.588180 5.007694 -32.540824 -9.500463 7.771070 -48.336674 15.708563 -25.460776 -10.835057 9.875174 -19.147252 -8.709670 25.718229 9.585984 44.837039 -12.681504 9.056410 
0.757915 0.706068 1.058651 -29.181880 -12.950112 85.154935 3.541326 4.837702 -14.423191 -4.475285 11.004026 88.945424 -5.123576 14.189383 -10.056994 0.000000 -0.000000 0.000000 -2.257807 -5.171424 -20.570089 -3.367669 -4.110836 34.143356 4.499762 -19.038292 4.476014 0.000000 -0.000000 0.000000 1.387389 -1.331449 34.415411 -3.169559 -5.938321 -6.013457 2.055583 -0.847156 3.657591 -7.570317 -17.151148 16.308485 18.919270 0.437821 -19.717106 33.448510 -22.473863 -25.740751 13.147786 -23.843996 -18.378112 21.549413 -60.076057 -14.522484 -16.088566 -15.620082 -8.779579 -43.865905 16.532223 -23.226272 -16.893808 5.914665 -27.008883 -22.656943 22.933539 -22.066915 5.471108 -0.671058 5.661695 
0.732302 0.699178 1.059258 -35.852776 -15.525087 90.759461 6.995738 3.633902 -31.889876 -3.227737 16.776203 112.045595 -5.776641 8.090176 -10.985113 0.000000 -0.000000 0.000000 -1.071257 -7.494536 -14.759068 -3.389979 -1.077266 16.835896 2.969611 -15.308995 0.699558 0.000000 -0.000000 0.000000 1.470994 5.005042 34.478240 -4.822120 -4.876248 -7.342010 2.241504 0.787343 5.316433 -8.839245 -19.620125 17.087488 21.464746 1.909941 -20.728507 27.554058 -18.307090 -23.597705 12.882363 -18.230950 -18.792421 51.911622 -69.354084 -53.185776 4.561637 -14.526888 -21.460606 -41.936851 14.808788 -21.985615 -15.082800 2.447815 -29.404272 -36.271017 34.584306 -44.071855 -16.313449 6.139897 -5.536548 
